Coordinates
version=1
nRows=19
nColumns=36
inDegrees=yes

Units are S.I. units (second, meters, Newtons, ...)
If the header above contains a line with 'inDegrees', this indicates whether rotational values are in degrees (yes) or radians (no).

endheader
time	pelvis_tilt	pelvis_list	pelvis_rotation	pelvis_tx	pelvis_ty	pelvis_tz	hip_flexion_r	hip_adduction_r	hip_rotation_r	knee_angle_r	knee_angle_r_beta	ankle_angle_r	subtalar_angle_r	mtp_angle_r	hip_flexion_l	hip_adduction_l	hip_rotation_l	knee_angle_l	knee_angle_l_beta	ankle_angle_l	subtalar_angle_l	mtp_angle_l	lumbar_extension	lumbar_bending	lumbar_rotation	arm_flex_r	arm_add_r	arm_rot_r	elbow_flex_r	pro_sup_r	arm_flex_l	arm_add_l	arm_rot_l	elbow_flex_l	pro_sup_l
      0.00000000	     -3.24616084	      5.18243097	   -175.36422478	      0.58522563	      1.06404294	      0.87736873	     15.07783034	     -1.43190819	     -1.19697735	     45.15454454	      0.78809547	     -4.28314571	    -28.65665861	     -7.49695455	     18.85192407	     -9.79772313	      8.05282678	     58.53743297	      1.02167094	      0.38092853	    -21.60872235	     -7.49695455	    -23.09080548	      6.84281043	      3.44510982	     17.58588218	    -11.74494812	     -0.20202359	     22.32345557	     89.45922693	     14.80567672	     -4.93715220	      0.66557362	     22.24667109	     82.67029691
      0.01666670	     -4.09245337	      4.64839297	   -177.53521459	      0.58526020	      1.06663400	      0.87635367	     15.51836836	     -1.32165488	      1.11102325	     46.69192078	      0.81492775	     -3.67263116	    -30.05672529	     -7.49701651	     17.05701221	     -9.13948035	      7.13263414	     57.01585721	      0.99511443	      5.58590923	    -19.39764164	     -7.49701651	    -23.36302288	      5.66067593	      4.55042382	     18.23837924	    -11.88884496	     -0.27024364	     21.97794062	     89.62993851	     15.09335216	     -5.40437704	      0.59927059	     22.15393101	     82.75311391
      0.03333330	     -3.29789295	      4.22099032	   -179.26865479	      0.58349456	      1.06615090	      0.87456761	     16.98654740	     -0.34810760	      4.40362287	     47.24227627	      0.82453327	     -4.52673497	    -31.07046943	     -7.49707108	     17.64116323	     -8.31276288	      6.66734576	     56.11460848	      0.97938468	      5.41655856	    -18.69024819	     -7.49707108	    -22.13623347	      4.56562163	      5.81691858	     18.29278291	    -12.30128646	     -0.69195753	     21.16016139	     89.78074600	     14.91021733	     -5.94528735	      0.61387044	     22.11923254	     83.00345959
      0.05000000	     -1.10032403	      3.56568665	   -179.96274612	      0.58005043	      1.06314620	      0.87429048	     19.43483822	      0.21189238	      6.38337542	     47.06853387	      0.82150089	     -5.34233055	    -32.06336673	     -7.49712315	     20.42714770	     -6.88717142	      6.64951504	     55.53918542	      0.96934165	      6.38618139	    -17.75752526	     -7.49712315	    -19.03531439	      3.82967636	      6.17295091	     17.72157978	    -12.44012640	     -1.89747378	     19.87221944	     89.84019774	     14.42055763	     -6.35087371	      0.87797050	     21.58745419	     83.73960688
      0.06666670	      0.24521270	      3.28278329	   -180.34589049	      0.57687038	      1.06404311	      0.87505549	     20.58474804	      1.01630190	      7.58686340	     46.14779081	      0.80543089	     -7.11302959	    -32.08116205	     -7.49764852	     22.19650459	     -5.74860994	      6.63845787	     54.14289964	      0.94497187	      6.38411990	    -16.64222716	     -7.49764852	    -17.12958048	      3.55875443	      7.14483087	     16.52222442	    -12.74018232	     -6.52409906	     19.84397985	     93.03835504	     14.19846750	     -6.55083451	      1.29515759	     21.15800998	     89.57845603
      0.08333330	      1.48291049	      3.40418469	   -180.41658700	      0.57504141	      1.06649873	      0.87593201	     21.40032370	      1.97593280	      7.65766299	     44.52965351	      0.77718907	     -8.91264451	    -31.51713432	     -7.49768051	     23.91887061	     -5.03638095	      6.37544802	     52.26955201	      0.91227578	      5.71495361	    -15.56567029	     -7.49768051	    -15.30205929	      3.92965353	      7.36645577	     16.01519630	    -13.28904644	     -7.32346828	     18.52883439	     93.24103089	     13.51815775	     -6.68750709	      0.98175544	     20.53227423	     90.32861540
      0.10000000	      1.36544607	      3.57081524	   -180.30092287	      0.57595648	      1.06975586	      0.87609453	     20.59380196	      2.82028964	      7.07692273	     42.11362735	      0.73502146	    -10.64179278	    -30.51585489	     -7.49787425	     23.98418352	     -4.50764303	      5.56527787	     49.79960106	      0.86916700	      4.21105118	    -14.88293404	     -7.49787425	    -15.36610551	      4.23507811	      7.77017649	     15.47285749	    -13.87225221	     -9.49554002	     18.16661255	     93.52466948	     13.25579923	     -6.85776545	      0.76242270	     19.97655509	     92.49110070
      0.11666670	      1.74923462	      3.63560639	   -180.03430712	      0.57923807	      1.07102241	      0.87681509	     20.41206483	      3.44411381	      6.00054951	     39.49545359	      0.68932570	    -11.40363885	    -28.84070685	     -7.49790711	     24.40980791	     -3.99729234	      4.25726786	     47.00022416	      0.82030866	      2.89671326	    -13.82349631	     -7.49790711	    -14.99810781	      4.43576667	      7.61503218	     15.00724550	    -14.46532314	     -9.77290680	     18.01711327	     93.33762076	     12.75789394	     -7.19209262	      0.69949966	     19.79202175	     92.46480677
      0.13333330	      1.74979779	      3.69607296	   -179.42823305	      0.58410469	      1.07186710	      0.87944381	     19.82835590	      3.95783386	      4.49722158	     36.75938723	      0.64157234	    -11.92187513	    -26.83654303	     -7.49807140	     24.05694113	     -3.35476717	      3.08188484	     43.58281504	      0.76066362	      1.68833557	    -12.85690743	     -7.49807140	    -15.36272937	      4.71902734	      7.19356943	     14.88299013	    -14.98247458	    -11.36230303	     17.74630967	     92.56225324	     13.05928582	     -7.44023669	      1.21024629	     18.71239974	     93.56377665
      0.15000000	      2.66341439	      3.77003720	   -178.75804893	      0.58709174	      1.07154987	      0.88239828	     20.13424523	      4.48511338	      2.97758302	     34.07498557	      0.59472069	    -11.80697371	    -24.23362386	     -7.49811709	     23.55431103	     -2.65285833	      1.97418047	     38.62964684	      0.67421453	      0.98562467	    -11.14047011	     -7.49811709	    -14.63942383	      5.08624414	      6.18028626	     14.48329894	    -15.49183782	    -11.80873311	     17.85827124	     91.89086890	     12.85994418	     -7.72759726	      1.14620802	     18.13329044	     93.36944438
      0.16666670	      3.32283077	      3.54893820	   -177.90523656	      0.58713698	      1.07221732	      0.88349287	     19.47086250	      4.73777347	      1.75580794	     30.50576361	      0.53242602	    -10.79629874	    -20.75003586	     -7.49841004	     22.26489154	     -1.56845905	      1.14030873	     33.06415275	      0.57707833	     -0.33373674	     -9.77211860	     -7.49841004	    -14.03681560	      5.06173104	      5.09968375	     13.78763825	    -15.99030163	    -12.06971411	     17.96967215	     91.61494655	     12.70762250	     -8.15123102	      1.65395210	     17.57049773	     94.44486804
      0.18333330	      4.34483957	      3.54788328	   -176.98538430	      0.58685798	      1.07304170	      0.88295565	     19.41333992	      5.21344371	      0.58385235	     27.47668310	      0.47955859	    -10.23479496	    -17.49217555	     -7.49846156	     21.45536015	     -0.64726890	      0.48862586	     27.81661250	      0.48549147	     -1.66711813	     -8.24525204	     -7.49846156	    -12.91889435	      5.17380131	      3.82270319	     12.94914852	    -16.29660048	    -12.47210022	     17.82703281	     91.35120060	     12.31146336	     -8.51488480	      1.31307850	     16.70734588	     94.43510447
      0.20000000	      5.21023685	      3.61064032	   -175.85096319	      0.58825841	      1.07262710	      0.88252458	     19.17149821	      5.64178663	     -0.44178115	     24.76068938	      0.43215555	     -9.56328068	    -14.41916480	     -7.49851215	     21.11505346	      0.31689331	      0.20366086	     23.68164055	      0.41332260	     -2.29159913	     -7.03701745	     -7.49851215	    -11.86913080	      5.25568377	      2.55743989	     12.05446804	    -16.52296437	    -13.02183652	     17.29716118	     91.00289129	     12.02451993	     -8.89235691	      0.82840983	     15.54673183	     94.40177483
      0.21666670	      6.08051995	      3.61593084	   -174.73105276	      0.58928839	      1.06999968	      0.88288443	     18.78468066	      5.88328826	     -1.27180608	     22.47803549	      0.39231573	     -8.77032996	    -11.93995879	     -7.49854629	     21.27646526	      1.33588300	     -0.06044731	     20.77741495	      0.36263430	     -2.76019076	     -6.22249558	     -7.49854629	    -10.57844312	      5.17992154	      1.34214083	     11.10715629	    -16.63453839	    -13.86883924	     16.67748727	     90.05763854	     11.69265506	     -9.27731762	     -0.05886667	     14.30316271	     94.17141326
      0.23333330	      6.75393965	      3.80812592	   -174.01759055	      0.58855394	      1.06634186	      0.88339164	     18.30434086	      6.34921929	     -2.00081808	     21.12522165	      0.36870467	     -7.66900401	    -10.17478636	     -7.49871112	     21.60546504	      1.95596362	     -0.90189418	     19.00350224	      0.33167368	     -3.25578501	     -5.38815202	     -7.49871112	     -9.38799036	      5.27691867	      0.35011865	     10.39521649	    -16.79865884	    -13.75709349	     15.95441584	     88.52985073	     11.29059738	     -9.66238173	     -0.53426416	     13.00802924	     93.32883926
      0.25000000	      7.38381366	      4.04316083	   -173.56660737	      0.58807131	      1.06243357	      0.88368507	     17.99679454	      6.79816752	     -3.13401106	     20.72285967	      0.36168213	     -6.09932966	     -8.63928776	     -7.49877961	     22.15272079	      2.40173828	     -2.26118655	     17.98051624	      0.31381921	     -3.60800206	     -4.64028980	     -7.49877961	     -8.15456890	      5.40396739	     -0.40446366	      9.79117466	    -16.98221471	    -13.85446895	     15.21761694	     88.17762589	     10.86623067	     -9.99231197	     -0.97896367	     11.85142435	     93.24399399
      0.26666670	      7.77601008	      4.29801192	   -173.55149924	      0.59099660	      1.05864777	      0.88342632	     17.89783984	      7.28202546	     -4.31480365	     21.14942746	      0.36912714	     -4.42221305	     -7.66899799	     -7.49881299	     22.36844513	      2.51501045	     -4.14752319	     17.40938431	      0.30385108	     -3.94168183	     -4.42211184	     -7.49881299	     -7.34789863	      5.58217106	     -0.82368951	      9.50536143	    -17.20674543	    -13.92375689	     14.61463455	     87.94686861	     10.50071539	    -10.28167755	     -1.34851327	     10.90876859	     93.15838077
      0.28333330	      7.73844808	      4.40892922	   -173.39886684	      0.59878199	      1.05473476	      0.88387281	     17.95516607	      7.53071749	     -5.45449267	     22.23714084	      0.38811132	     -3.20259162	     -8.11462342	     -7.49882123	     22.77464491	      2.66427066	     -5.50841389	     18.17069806	      0.31713851	     -2.99420543	     -5.13354730	     -7.49882123	     -7.56722878	      5.74459136	     -1.07030516	      9.48714923	    -17.54825609	    -14.00605387	     14.40154142	     87.85491557	     10.55817012	    -10.59417231	     -1.47801816	     10.62122607	     93.12080919
      0.30000000	      7.74819182	      4.41808796	   -173.34764509	      0.60878082	      1.04934245	      0.88556452	     18.73440788	      7.55230885	     -6.61470143	     24.16466643	      0.42175299	     -1.62789433	     -8.56011898	     -7.49883157	     23.85458231	      2.80701719	     -6.40857499	     20.25579446	      0.35353031	     -0.40779227	     -6.09636171	     -7.49883157	     -8.32906771	      5.73464628	     -1.29298069	     10.03864458	    -18.01117866	    -14.17397245	     14.18956110	     87.69979808	     11.08216617	    -10.90013407	     -1.65705499	     10.36460001	     93.06346628
